<svg xmlns="http://www.w3.org/2000/svg" width="35" height="35" viewBox="0 0 35 35">
  <g id="그룹_19563" data-name="그룹 19563" transform="translate(-153 -663)">
    <rect id="사각형_9073" data-name="사각형 9073" width="35" height="35" transform="translate(153 663)" fill="rgba(255,255,255,0)"/>
    <g id="그룹_19550" data-name="그룹 19550" transform="translate(-3344.8 -1624.282)">
      <path id="패스_15336" data-name="패스 15336" d="M3522.649,2294.282h-14.7a3.152,3.152,0,0,0-3.15,3.15v10.5a3.151,3.151,0,0,0,3.15,3.15h12.169l3.885,3.9a1.05,1.05,0,0,0,.746.3.883.883,0,0,0,.4-.084,1.054,1.054,0,0,0,.651-.966v-16.8A3.167,3.167,0,0,0,3522.649,2294.282Zm1.05,17.419-2.4-2.415a1.05,1.05,0,0,0-.746-.3h-12.6a1.056,1.056,0,0,1-1.05-1.05v-10.5a1.056,1.056,0,0,1,1.05-1.05h14.7a1.05,1.05,0,0,1,1.05,1.05Z" transform="translate(0 0)" fill="#fff"/>
      <path id="패스_15337" data-name="패스 15337" d="M3682.854,2692.558a1.1,1.1,0,1,0,.422,2.12A1.105,1.105,0,0,0,3682.854,2692.558Z" transform="translate(-172.775 -388.878)" fill="#fff"/>
      <path id="패스_15338" data-name="패스 15338" d="M3683.276,2517.678a1.1,1.1,0,1,0-1.5-.8A1.1,1.1,0,0,0,3683.276,2517.678Z" transform="translate(-172.775 -216.055)" fill="#fff"/>
      <path id="패스_15339" data-name="패스 15339" d="M3866.516,2692.553H3859.9a1.1,1.1,0,1,0,0,2.2h6.612a1.1,1.1,0,1,0,0-2.2Z" transform="translate(-345.88 -388.873)" fill="#8a8ad3"/>
      <path id="패스_15340" data-name="패스 15340" d="M3866.516,2515.553H3859.9a1.1,1.1,0,0,0,0,2.2h6.612a1.1,1.1,0,0,0,0-2.2Z" transform="translate(-345.88 -216.049)" fill="#8a8ad3"/>
    </g>
  </g>
</svg>
