<svg xmlns="http://www.w3.org/2000/svg" width="50.4" height="50.4" viewBox="0 0 50.4 50.4">
  <g id="그룹_19478" data-name="그룹 19478" transform="translate(0.2 0.2)" opacity="0.6">
    <g id="그룹_19477" data-name="그룹 19477" transform="translate(0 0)">
      <path id="패스_15320" data-name="패스 15320" d="M21.57,29.824a8.255,8.255,0,1,1,16.509,0,8.177,8.177,0,0,1-.852,3.66l2.847,1.41a11.324,11.324,0,0,0,1.183-5.07,11.433,11.433,0,1,0-17.784,9.508l1.768-2.641a8.251,8.251,0,0,1-3.671-6.868" transform="translate(-4.825 -4.76)" fill="#7777c5" stroke="#7777c5" stroke-width="0.4"/>
      <path id="패스_15321" data-name="패스 15321" d="M26.877,12.134a14.743,14.743,0,0,1,0,29.486v3a17.736,17.736,0,1,0-15.7-9.463l2.653-1.4A14.748,14.748,0,0,1,26.877,12.134" transform="translate(-1.877 -1.877)" fill="#7777c5" stroke="#7777c5" stroke-width="0.4"/>
      <path id="패스_15322" data-name="패스 15322" d="M25,0A25,25,0,0,0,6.871,42.214l2.212-2.1a21.885,21.885,0,1,1,10.795,6.234l-.709,2.967A25,25,0,1,0,25,0" fill="#7777c5" stroke="#7777c5" stroke-width="0.4"/>
    </g>
  </g>
</svg>
