<svg xmlns="http://www.w3.org/2000/svg" width="35" height="35" viewBox="0 0 35 35">
  <g id="그룹_19560" data-name="그룹 19560" transform="translate(-55 -378)">
    <rect id="사각형_9073" data-name="사각형 9073" width="35" height="35" transform="translate(55 378)" fill="rgba(255,255,255,0)"/>
    <g id="그룹_19559" data-name="그룹 19559" transform="translate(-503.716 -355.728)">
      <path id="패스_15346" data-name="패스 15346" d="M564.861,2851.966a1.151,1.151,0,0,0-1.145,1.145v2.29a1.145,1.145,0,0,0,2.29,0v-2.29A1.151,1.151,0,0,0,564.861,2851.966Z" transform="translate(0 -2098.423)" fill="#8a8ad3"/>
      <path id="패스_15347" data-name="패스 15347" d="M4085.322,2851.966a1.151,1.151,0,0,0-1.145,1.145v2.29a1.145,1.145,0,0,0,2.29,0v-2.29A1.151,1.151,0,0,0,4085.322,2851.966Z" transform="translate(-3497.751 -2098.423)" fill="#8a8ad3"/>
      <path id="패스_15348" data-name="패스 15348" d="M1106.457,745.478h-4.532v-1.472a2.289,2.289,0,1,0-2.266,0v1.472h-4.533a3.445,3.445,0,0,0-3.4,3.45v10.35a3.445,3.445,0,0,0,3.4,3.45h11.331a3.442,3.442,0,0,0,3.4-3.45s0-10.35,0-10.35A3.445,3.445,0,0,0,1106.457,745.478Zm-3.717,2.3-.566,2.3h-2.765l-.566-2.3Zm3.717,12.65h-11.332a1.126,1.126,0,0,1-.8-.337,1.159,1.159,0,0,1-.332-.813v-10.35a1.148,1.148,0,0,1,1.133-1.15h1.383l.884,3.726a1.141,1.141,0,0,0,1.133.874h4.533a1.141,1.141,0,0,0,1.133-.874l.884-3.726h1.383a1.148,1.148,0,0,1,1.133,1.15v10.35A1.148,1.148,0,0,1,1106.457,760.427Z" transform="translate(-524.575)" fill="#fff" stroke="#201e27" stroke-width="0.7"/>
      <path id="패스_15349" data-name="패스 15349" d="M1798.59,3028.018a1.146,1.146,0,0,0-.223,2.268A1.146,1.146,0,1,0,1798.59,3028.018Z" transform="translate(-1225.781 -2273.333)" fill="#8a8ad3"/>
      <path id="패스_15350" data-name="패스 15350" d="M2854.73,3028.018a1.146,1.146,0,0,0-.223,2.268A1.146,1.146,0,1,0,2854.73,3028.018Z" transform="translate(-2275.107 -2273.333)" fill="#8a8ad3"/>
    </g>
  </g>
</svg>
